# This file uses centimeters as units for non-parametric coordinates.

mtllib Bed.mtl
g default
v -6.000000 0.000000 2.550000
v 6.000000 0.000000 2.550000
v -6.000000 2.500000 2.550000
v 6.000000 2.500000 2.550000
v -6.000000 2.500000 -2.550000
v 6.000000 2.500000 -2.550000
v -6.000000 0.000000 -2.550000
v 6.000000 0.000000 -2.550000
v -2.952444 2.500000 2.550000
v -2.952444 2.500000 -2.550000
v -2.952444 0.000000 -2.550000
v -2.952444 0.000000 2.550000
v -1.687974 2.500000 2.550000
v -1.687974 2.500000 -2.550000
v -1.687974 0.000000 -2.550000
v -1.687974 0.000000 2.550000
v -5.603955 2.500000 1.887230
v -3.348489 2.500000 1.887230
v -3.348489 2.500000 -1.887230
v -5.603955 2.500000 -1.887230
v -5.537280 3.067870 1.775651
v -3.415164 3.067870 1.775651
v -3.415164 3.067870 -1.775651
v -5.537280 3.067870 -1.775651
v -3.294759 2.756520 1.977146
v -5.657685 2.756520 1.977146
v -5.657685 2.756520 -1.977146
v -3.294759 2.756520 -1.977146
v -2.952444 2.605195 2.655195
v -1.687974 2.605195 2.655195
v -1.687974 2.605195 -2.655195
v -2.952444 2.605195 -2.655195
v -2.952444 0.000000 -2.760390
v -1.687974 0.000000 -2.760390
v -2.952444 0.000000 2.760390
v -1.687974 0.000000 2.760390
vt 0.764189 0.564191
vt 0.766619 0.474940
vt 0.977388 0.564191
vt 0.979818 0.474940
vt 0.009790 0.641636
vt 0.198766 0.641636
vt 0.198766 0.782584
vt 0.009790 0.782584
vt 0.565711 0.984701
vt 0.478978 0.984701
vt 0.766619 0.131378
vt 0.979818 0.131378
vt 0.764189 0.914996
vt 0.977388 0.914996
vt 0.015623 0.009097
vt 0.198766 0.782584
vt 0.198766 0.635705
vt 0.478978 0.804731
vt 0.277175 0.635705
vt 0.202512 0.009097
vt 0.277175 0.782584
vt 0.277175 0.782584
vt 0.565711 0.804731
vt 0.442991 0.984701
vt 0.052263 0.268077
vt 0.162404 0.268077
vt 0.162404 0.522960
vt 0.052263 0.522960
vt 0.200750 0.170420
vt 0.278269 0.170420
vt 0.278269 0.620616
vt 0.200750 0.620616
vt 0.278269 0.179338
vt 0.749588 0.179338
vt 0.749588 0.611698
vt 0.278269 0.611698
vt 0.202512 0.139761
vt 0.277175 0.641636
vt 0.753899 0.641636
vt 0.015623 0.139761
vt 0.753899 0.782584
vt 0.442991 0.804731
vt 0.224192 0.984701
vt 0.224192 0.804731
vt 0.013917 0.179338
vt 0.200750 0.179338
vt 0.176470 0.235526
vt 0.038197 0.235526
vt 0.200750 0.611698
vt 0.176470 0.555511
vt 0.013917 0.611698
vt 0.038197 0.555511
vt 0.171562 0.246883
vt 0.043104 0.246883
vt 0.171562 0.544154
vt 0.043104 0.544154
vt 0.202512 0.145259
vt 0.202512 0.009097
vt 0.280054 0.009097
vt 0.280054 0.145259
vt 0.280054 0.139761
vt 0.280054 0.009097
vt 0.751512 0.009097
vt 0.751512 0.139761
vt 0.478978 0.992125
vt 0.442991 0.992125
vt 0.442991 0.797307
vt 0.478978 0.797307
vn 0.000000 0.000000 1.000000
vn 0.000000 0.000000 1.000000
vn 0.000000 0.000000 1.000000
vn 0.000000 0.000000 1.000000
vn 0.000000 1.000000 0.000000
vn 0.000000 1.000000 0.000000
vn 0.000000 1.000000 0.000000
vn 0.000000 1.000000 0.000000
vn 0.000000 0.000000 -1.000000
vn 0.000000 0.000000 -1.000000
vn 0.000000 0.000000 -1.000000
vn 0.000000 0.000000 -1.000000
vn 0.000000 -1.000000 0.000000
vn 0.000000 -1.000000 0.000000
vn 0.000000 -1.000000 0.000000
vn 0.000000 -1.000000 0.000000
vn 1.000000 0.000000 0.000000
vn 1.000000 0.000000 0.000000
vn 1.000000 0.000000 0.000000
vn 1.000000 0.000000 0.000000
vn -1.000000 0.000000 0.000000
vn -1.000000 0.000000 0.000000
vn -1.000000 0.000000 0.000000
vn -1.000000 0.000000 0.000000
vn 0.000000 1.000000 0.000000
vn 0.000000 1.000000 0.000000
vn 0.000000 1.000000 0.000000
vn 0.000000 1.000000 0.000000
vn 0.000000 0.040346 -0.999186
vn 0.000000 0.040346 -0.999186
vn 0.000000 0.040346 -0.999186
vn 0.000000 0.040346 -0.999186
vn 0.000000 -1.000000 0.000000
vn 0.000000 -1.000000 0.000000
vn 0.000000 0.040346 0.999186
vn 0.000000 0.040346 0.999186
vn 0.000000 0.040346 0.999186
vn 0.000000 0.040346 0.999186
vn 0.000000 1.000000 0.000000
vn 0.000000 1.000000 0.000000
vn 0.000000 1.000000 0.000000
vn 0.000000 1.000000 0.000000
vn 0.000000 0.000000 -1.000000
vn 0.000000 0.000000 -1.000000
vn 0.000000 0.000000 -1.000000
vn 0.000000 0.000000 -1.000000
vn 0.000000 -1.000000 0.000000
vn 0.000000 -1.000000 0.000000
vn 0.000000 0.000000 1.000000
vn 0.000000 0.000000 1.000000
vn 0.000000 0.000000 1.000000
vn 0.000000 0.000000 1.000000
vn 0.000000 1.000000 0.000000
vn 0.000000 1.000000 0.000000
vn 0.000000 1.000000 0.000000
vn 0.000000 1.000000 0.000000
vn 0.000000 1.000000 0.000000
vn 0.000000 1.000000 0.000000
vn 0.000000 1.000000 0.000000
vn 0.000000 1.000000 0.000000
vn 0.000000 1.000000 -0.000000
vn 0.000000 1.000000 -0.000000
vn 0.000000 1.000000 -0.000000
vn 0.000000 1.000000 -0.000000
vn 0.000000 1.000000 0.000000
vn 0.000000 1.000000 0.000000
vn 0.000000 1.000000 0.000000
vn 0.000000 1.000000 0.000000
vn 0.000000 -0.330789 0.943705
vn 0.000000 -0.330789 0.943705
vn 0.000000 0.164525 0.986373
vn 0.000000 0.164525 0.986373
vn 0.978760 -0.205009 0.000000
vn 0.978760 -0.205009 0.000000
vn 0.996397 0.084809 0.000000
vn 0.996397 0.084809 0.000000
vn 0.000000 -0.330789 -0.943705
vn 0.000000 -0.330789 -0.943705
vn 0.000000 0.164525 -0.986373
vn 0.000000 0.164525 -0.986373
vn -0.978760 -0.205008 0.000000
vn -0.978760 -0.205008 0.000000
vn -0.996397 0.084809 0.000000
vn -0.996397 0.084809 0.000000
vn 0.000000 0.543313 0.839530
vn 0.000000 0.543313 0.839530
vn -0.932687 0.360688 0.000000
vn -0.932687 0.360688 0.000000
vn 0.000000 0.543313 -0.839530
vn 0.000000 0.543313 -0.839530
vn 0.932686 0.360688 0.000000
vn 0.932686 0.360688 0.000000
vn 1.000000 -0.000001 0.000000
vn 1.000000 -0.000001 0.000000
vn 1.000000 -0.000001 0.000000
vn 1.000000 -0.000001 0.000000
vn -1.000000 0.000001 0.000000
vn -1.000000 0.000001 0.000000
vn -1.000000 0.000001 0.000000
vn -1.000000 0.000001 0.000000
vn -1.000000 0.000000 0.000000
vn -1.000000 0.000000 0.000000
vn 1.000000 0.000000 0.000000
vn 1.000000 0.000000 0.000000
vn 0.000000 -1.000000 0.000000
vn 0.000000 -1.000000 0.000000
vn -1.000000 0.000000 0.000000
vn -1.000000 0.000000 0.000000
vn 0.000000 -1.000000 0.000000
vn 0.000000 -1.000000 0.000000
vn 1.000000 0.000000 0.000000
vn 1.000000 0.000000 0.000000
s off
g Bed
usemtl initialShadingGroup
f 1/15/1 12/20/2 9/37/3 3/40/4
f 21/25/5 22/26/6 23/27/7 24/28/8
f 5/5/9 10/6/10 11/7/11 7/8/12
s 1
f 7/9/13 11/10/14 12/18/15 1/23/16
s off
f 2/2/17 8/11/18 6/12/19 4/4/20
f 7/13/21 1/1/22 3/3/23 5/14/24
f 29/29/25 30/30/26 31/31/27 32/32/28
f 33/16/29 32/17/30 31/19/31 34/21/32
s 1
f 12/18/15 11/10/14 15/24/33 16/42/34
s off
f 29/57/35 35/58/36 36/59/37 30/60/38
f 13/33/39 4/34/40 6/35/41 14/36/42
f 15/22/43 14/38/44 6/39/45 8/41/46
s 1
f 16/42/34 15/24/33 8/43/47 2/44/48
s off
f 13/61/49 16/62/50 2/63/51 4/64/52
f 3/45/53 9/46/54 18/47/55 17/48/56
f 9/46/57 10/49/58 19/50/59 18/47/60
f 10/49/61 5/51/62 20/52/63 19/50/64
f 5/51/65 3/45/66 17/48/67 20/52/68
s 2
f 17/48/69 18/47/70 25/53/71 26/54/72
s 3
f 18/47/73 19/50/74 28/55/75 25/53/76
s 4
f 19/50/77 20/52/78 27/56/79 28/55/80
s 5
f 20/52/81 17/48/82 26/54/83 27/56/84
s 2
f 26/54/72 25/53/71 22/26/85 21/25/86
s 5
f 27/56/84 26/54/83 21/25/87 24/28/88
s 4
f 28/55/80 27/56/79 24/28/89 23/27/90
s 3
f 25/53/76 28/55/75 23/27/91 22/26/92
s 6
f 13/33/93 14/36/94 31/31/95 30/30/96
s 7
f 10/49/97 9/46/98 29/29/99 32/32/100
f 11/7/101 10/6/97 32/17/100 33/16/102
s 6
f 14/38/94 15/22/103 34/21/104 31/19/95
s 1
f 15/24/33 11/10/14 33/65/105 34/66/106
s 7
f 9/37/98 12/20/107 35/58/108 29/57/99
s 1
f 12/18/15 16/42/34 36/67/109 35/68/110
s 6
f 16/62/111 13/61/93 30/60/96 36/59/112
